<svg fill="#0f0f0f" height="18px" width="18px" version="1.1" id="Layer_1" 
xmlns="http://www.w3.org/2000/svg" xmlns:xlink="http://www.w3.org/1999/xlink" 
viewBox="0 0 300.076 300.076" xml:space="preserve">
<g id="SVGRepo_bgCarrier" stroke-width="0"></g>
<g id="SVGRepo_tracerCarrier" stroke-linecap="round" stroke-linejoin="round"></g>
<g id="SVGRepo_iconCarrier"> <g> <g> <path d="M272.648,0C269.047,0,31.033,0,27.43,0C12.308,0,0.004,12.303,0.004,27.425c0,5.31,0,239.916,0,245.226 c0,15.121,12.303,27.425,27.425,27.425c3.602,0,241.615,0,245.218,0c15.121,0,27.425-12.303,27.425-27.425 c0-5.31,0-239.916,0-245.226C300.072,12.303,287.77,0,272.648,0z M158.666,44.692V17.25h113.981 c5.611,0,10.175,4.564,10.175,10.175v113.988h-19.681c-4.009-19.736-21.497-34.638-42.4-34.638 c-20.902,0-38.39,14.902-42.401,34.638h-19.674V113.97c0-4.764-3.862-8.625-8.625-8.625c-14.338,0-26.004-11.669-26.004-26.013 c0-14.345,11.666-26.014,26.004-26.014C154.804,53.317,158.666,49.457,158.666,44.692z M17.254,27.425 c0-5.611,4.564-10.175,10.175-10.175H141.41v19.681c-19.737,4.009-34.639,21.497-34.639,42.401 c0,20.902,14.902,38.39,34.639,42.399v19.681h-27.436c-4.763,0-8.625,3.861-8.625,8.625c0,14.339-11.669,26.004-26.014,26.004 c-14.344,0-26.014-11.664-26.014-26.004c0-4.764-3.862-8.625-8.625-8.625H17.254V27.425z M141.41,255.383v27.442H27.429 c-5.61,0.001-10.175-4.563-10.175-10.174V158.663h19.681c4.009,19.736,21.497,34.638,42.401,34.638 c20.902,0,38.39-14.902,42.4-34.638h19.674v27.443c0,4.764,3.862,8.625,8.625,8.625c14.338,0,26.004,11.669,26.004,26.013 c0,14.345-11.666,26.014-26.004,26.014C145.272,246.758,141.41,250.618,141.41,255.383z M282.824,272.651h-0.001 c0,5.611-4.564,10.175-10.175,10.175H158.666v-19.681c19.737-4.009,34.639-21.497,34.639-42.4 c0-20.902-14.902-38.39-34.639-42.399v-19.681h27.436c4.763,0,8.625-3.861,8.625-8.625c0-14.339,11.669-26.004,26.014-26.004 c14.344,0,26.014,11.666,26.014,26.004c0,4.764,3.862,8.625,8.625,8.625h0.001h27.442V272.651z"></path> 
</g> </g> </g>
<title>New</title>
</svg>